# Blender v3.1.2 OBJ File: ''
# www.blender.org
mtllib test.mtl
o Cube_Cube.001
v -0.123980 -1.282226 -0.557419
v -0.123980 -1.167060 -0.560090
v -0.123980 -1.237000 -1.885335
v -0.123980 -0.989040 -1.885335
v 0.123980 -1.282226 -0.557419
v 0.123980 -1.167060 -0.560090
v 0.123980 -1.237000 -1.885335
v 0.123980 -0.989040 -1.885335
v -0.123980 -1.242306 -1.016253
v -0.123980 -1.014474 -1.014911
v 0.123980 -1.242306 -1.016253
v 0.123980 -1.014474 -1.014911
v -0.123980 -0.996635 -1.625394
v 0.123980 -1.224468 -1.626735
v -0.123980 -1.224468 -1.626735
v 0.123980 -0.996635 -1.625394
v -0.123980 -1.262466 -0.900762
v 0.123980 -1.035304 -0.799450
v -0.123980 -1.035304 -0.799450
v 0.123980 -1.262466 -0.900762
v -0.123980 -1.269755 -0.701398
v 0.123980 -1.061979 -0.699373
v -0.123980 -1.061979 -0.699373
v 0.123980 -1.269755 -0.701398
v -0.123980 -1.275990 -0.629409
v 0.123980 -1.129799 -0.636473
v -0.123980 -1.129799 -0.636473
v 0.123980 -1.275990 -0.629409
v -0.123980 -1.279040 -0.420092
v -0.123980 -1.197579 -0.421864
v 0.123980 -1.279040 -0.420092
v 0.123980 -1.197579 -0.421864
v -0.123980 -1.197579 -0.421864
v 0.123980 -1.197579 -0.421864
v -0.123980 -1.279325 -0.276757
v -0.123980 -1.197864 -0.278529
v 0.123980 -1.279325 -0.276757
v 0.123980 -1.197864 -0.278529
v -0.123980 -1.197864 -0.278529
v 0.123980 -1.197864 -0.278529
v -0.123980 -1.281415 -0.135877
v -0.123980 -1.199976 -0.133279
v 0.123980 -1.281415 -0.135877
v 0.123980 -1.199976 -0.133279
v -0.123980 -1.199976 -0.133279
v 0.123980 -1.199976 -0.133279
v -0.162254 -1.302606 0.002490
v -0.162254 -1.196027 0.005890
v 0.162254 -1.302606 0.002490
v 0.162254 -1.196027 0.005890
v -0.162254 -1.196027 0.005890
v 0.162254 -1.196027 0.005890
v -0.162254 -1.316165 0.143525
v -0.162254 -1.200526 0.146925
v 0.162254 -1.316165 0.143525
v 0.162254 -1.200526 0.146925
v -0.162254 -1.200526 0.146925
v 0.162254 -1.200526 0.146925
v -0.162254 -1.325462 0.283013
v -0.162254 -1.173583 0.289001
v 0.162254 -1.325462 0.283013
v 0.162254 -1.173583 0.289001
v -0.162254 -1.173583 0.289001
v 0.162254 -1.173583 0.289001
v -0.162254 -1.320814 0.215534
v -0.162254 -1.202586 0.219257
v -0.162254 -1.202586 0.219257
v 0.162254 -1.202586 0.219257
v 0.162254 -1.320814 0.215534
v 0.162254 -1.202586 0.219257
v -0.162254 -1.331069 0.425212
v -0.162254 -1.089886 0.433142
v 0.162254 -1.331069 0.425212
v 0.162254 -1.089886 0.433142
v -0.162254 -1.089886 0.433142
v 0.162254 -1.089886 0.433142
v -0.162254 -1.342780 0.565510
v -0.162254 -1.084771 0.572146
v 0.162254 -1.342780 0.565510
v 0.162254 -1.084771 0.572146
v -0.162254 -1.084771 0.572146
v 0.162254 -1.084771 0.572146
v 0.162254 -1.081319 0.467168
v 0.162254 -1.081319 0.467168
v -0.162254 -1.081319 0.467168
v 0.162254 -1.332210 0.459885
v -0.162254 -1.332210 0.459885
v -0.162254 -1.081319 0.467168
v -0.162254 -1.346440 0.707818
v -0.162254 -1.088431 0.714454
v 0.162254 -1.346440 0.707818
v 0.162254 -1.088431 0.714454
v -0.162254 -1.088431 0.714454
v 0.162254 -1.088431 0.714454
v -0.162254 -1.352097 0.852316
v -0.162254 -1.111561 0.855716
v 0.162254 -1.352097 0.852316
v 0.162254 -1.111561 0.855716
v -0.162254 -1.111561 0.855716
v 0.162254 -1.111561 0.855716
v -0.162254 -1.355467 0.887075
v -0.162254 -1.116872 0.890475
v 0.162254 -1.355467 0.887075
v 0.162254 -1.116872 0.890475
v -0.162254 -1.116872 0.890475
v 0.162254 -1.116872 0.890475
v -0.162254 -1.355688 0.902603
v -0.162254 -1.113858 0.906003
v 0.162254 -1.355688 0.902603
v 0.162254 -1.113858 0.906003
v -0.162254 -1.113858 0.906003
v 0.162254 -1.113858 0.906003
v -0.162254 -1.357008 0.996455
v -0.162254 -1.067290 0.999855
v 0.162254 -1.357008 0.996455
v 0.162254 -1.067290 0.999855
v -0.162254 -1.067290 0.999855
v 0.162254 -1.067290 0.999855
v 0.162254 -1.356348 0.949529
v -0.162254 -1.356348 0.949529
v -0.162254 -1.082808 0.952929
v -0.162254 -1.082808 0.952929
v 0.162254 -1.082808 0.952929
v 0.162254 -1.082808 0.952929
vt 0.375000 0.195573
vt 0.625000 0.195573
vt 0.625000 0.250000
vt 0.375000 0.250000
vt 0.625000 0.500000
vt 0.375000 0.500000
vt 0.375000 0.742438
vt 0.621270 0.740382
vt 0.625000 0.750000
vt 0.375000 0.750000
vt 0.875000 0.750000
vt 0.875000 0.750000
vt 0.625000 0.750000
vt 0.125000 0.742438
vt 0.125000 0.750000
vt 0.875000 0.740443
vt 0.625000 0.554427
vt 0.875000 0.554427
vt 0.875000 0.682250
vt 0.625000 0.682250
vt 0.125000 0.554427
vt 0.375000 0.554427
vt 0.375000 0.682250
vt 0.125000 0.682250
vt 0.375000 0.033875
vt 0.625000 0.033875
vt 0.625000 0.067750
vt 0.375000 0.067750
vt 0.125000 0.500000
vt 0.875000 0.500000
vt 0.374861 0.014951
vt 0.617541 0.019236
vt 0.875000 0.716125
vt 0.625000 0.716125
vt 0.375000 0.716125
vt 0.125000 0.716125
vt 0.374931 0.007475
vt 0.621270 0.009618
vt 0.875000 0.730885
vt 0.617541 0.730764
vt 0.375000 0.734876
vt 0.125000 0.734876
vt 0.375000 0.000000
vt 0.625000 0.000000
vt 0.000000 0.000000
vt 0.000000 0.000000
vt 0.000000 0.000000
vt 0.000000 0.000000
vt 0.375000 0.750000
vt 0.375000 0.000000
vt 0.625000 0.000000
vt 0.125000 0.750000
vt 0.625000 0.750000
vt 0.375000 0.750000
vt 0.000000 0.000000
vt 0.000000 0.000000
vt 0.625000 0.750000
vt 0.375000 0.750000
vt 0.000000 0.000000
vt 0.000000 0.000000
vt 0.125000 0.750000
vt 0.375000 0.000000
vt 0.625000 0.000000
vt 0.000000 0.000000
vt 0.000000 0.000000
vt 0.000000 0.000000
vt 0.000000 0.000000
vt 0.625000 0.750000
vt 0.375000 0.750000
vt 0.000000 0.000000
vt 0.125000 0.750000
vt 0.375000 0.000000
vt 0.625000 0.000000
vt 0.000000 0.000000
vt 0.000000 0.000000
vt 0.000000 0.000000
vt 0.000000 0.000000
vt 0.000000 0.000000
vt 0.625000 0.000000
vt 0.375000 0.000000
vt 0.375000 0.000000
vt 0.625000 0.000000
vt 0.125000 0.750000
vt 0.000000 0.000000
vt 0.000000 0.000000
vt 0.000000 0.000000
vt 0.000000 0.000000
vt 0.625000 0.000000
vt 0.375000 0.000000
vt 0.375000 0.000000
vt 0.625000 0.000000
vt 0.625000 0.750000
vt 0.375000 0.750000
vt 0.000000 0.000000
vt 0.000000 0.000000
vt 0.125000 0.750000
vt 0.000000 0.000000
vt 0.000000 0.000000
vt 0.000000 0.000000
vt 0.000000 0.000000
vt 0.000000 0.000000
vt 0.375000 0.750000
vt 0.625000 0.750000
vt 0.625000 0.750000
vt 0.375000 0.750000
vt 0.000000 0.000000
vt 0.000000 0.000000
vt 0.125000 0.750000
vt 0.125000 0.750000
vt 0.000000 0.000000
vt 0.000000 0.000000
vt 0.000000 0.000000
vt 0.000000 0.000000
vt 0.625000 0.750000
vt 0.625000 0.750000
vt 0.625000 0.750000
vt 0.625000 0.750000
vt 0.375000 0.750000
vt 0.125000 0.750000
vt 0.375000 0.000000
vt 0.625000 0.000000
vt 0.000000 0.000000
vt 0.625000 0.750000
vt 0.375000 0.750000
vt 0.625000 0.750000
vt 0.375000 0.750000
vt 0.000000 0.000000
vt 0.000000 0.000000
vt 0.000000 0.000000
vt 0.125000 0.750000
vt 0.375000 0.750000
vt 0.125000 0.750000
vt 0.625000 0.000000
vt 0.375000 0.000000
vt 0.375000 0.000000
vt 0.625000 0.000000
vt 0.000000 0.000000
vt 0.625000 0.750000
vt 0.625000 0.750000
vt 0.375000 0.750000
vt 0.000000 0.000000
vt 0.000000 0.000000
vt 0.625000 0.750000
vt 0.000000 0.000000
vt 0.125000 0.750000
vt 0.375000 0.000000
vt 0.625000 0.000000
vt 0.125000 0.750000
vt 0.375000 0.750000
vt 0.125000 0.750000
vt 0.000000 0.000000
vt 0.000000 0.000000
vt 0.000000 0.000000
vt 0.625000 0.750000
vt 0.375000 0.000000
vt 0.625000 0.000000
vt 0.625000 0.750000
vt 0.625000 0.750000
vt 0.625000 0.750000
vt 0.625000 0.750000
vt 0.375000 0.750000
vt 0.375000 0.000000
vt 0.625000 0.000000
vt 0.000000 0.000000
vt 0.625000 0.000000
vt 0.375000 0.000000
vt 0.375000 0.000000
vt 0.625000 0.000000
vt 0.125000 0.750000
vt 0.375000 0.750000
vt 0.375000 0.750000
vt 0.125000 0.750000
vt 0.000000 0.000000
vt 0.000000 0.000000
vt 0.125000 0.750000
vt 0.375000 0.000000
vt 0.625000 0.000000
vt 0.000000 0.000000
vt 0.625000 0.750000
vt 0.625000 1.000000
vt 0.375000 1.000000
vt 0.625000 1.000000
vt 0.625000 0.750000
vt 0.000000 0.000000
vt 0.000000 0.000000
vt 0.000000 0.000000
vt 0.000000 0.000000
vt 0.625000 0.750000
vt 0.625000 0.750000
vt 0.000000 0.000000
vt 0.000000 0.000000
vn -1.0000 0.0000 0.0000
vn 0.0000 0.0000 -1.0000
vn 1.0000 -0.0000 0.0000
vn 0.0000 0.9765 0.2156
vn 0.0000 -0.9963 -0.0863
vn 0.0000 0.8988 0.4384
vn 0.0000 0.9996 0.0292
vn 0.0000 -0.9996 -0.0292
vn 0.0000 -0.9988 0.0484
vn 0.0000 0.9954 0.0962
vn 0.0000 -0.9851 -0.1720
vn 0.0000 0.9663 0.2576
vn 0.0000 -0.9993 -0.0365
vn 0.0000 0.6800 0.7332
vn 0.0000 0.0000 1.0000
vn 0.0000 -0.9997 0.0232
vn 0.0000 -1.0000 -0.0020
vn 0.9641 0.0085 -0.2654
vn 0.0000 -0.9999 -0.0145
vn 0.0000 -0.9999 -0.0148
vn 0.0000 -0.9996 0.0284
vn 0.0000 -0.9885 -0.1514
vn -0.9641 0.0085 -0.2654
vn 0.0000 -0.9995 -0.0319
vn 0.0000 -0.9954 -0.0957
vn 0.0000 -0.8648 0.5021
vn 0.0000 -0.9233 0.3840
vn 0.0000 -0.9976 -0.0687
vn 0.0000 -0.9979 -0.0644
vn 0.0000 -0.9996 -0.0285
vn 0.0000 -0.9995 -0.0329
vn 0.0000 -0.9992 -0.0394
vn 0.0000 -0.9950 -0.0996
vn 0.0000 -0.9697 0.2442
vn 0.0000 -0.9997 -0.0257
vn 0.0000 -0.9953 -0.0965
vn 0.0000 -0.9885 -0.1510
vn 0.0000 -0.9869 -0.1616
vn 0.0000 -0.9992 -0.0391
vn 0.0000 -0.9999 -0.0141
vn 0.0000 -0.9817 0.1906
vn 0.0000 -0.9999 -0.0142
vn 0.0000 -0.0117 0.9999
vn 0.0000 -0.9494 0.3140
vn 0.0000 -0.8340 0.5518
usemtl None
s off
f 15/1/1 13/2/1 4/3/1 3/4/1
f 3/4/2 4/3/2 8/5/2 7/6/2
f 28/7/3 26/8/3 6/9/3 5/10/3
f 6/9/4 2/11/4 30/12/4 32/13/4
f 25/14/5 28/7/5 5/10/5 1/15/5
f 26/8/6 27/16/6 2/11/6 6/9/6
f 16/17/7 13/18/7 10/19/7 12/20/7
f 15/21/8 14/22/8 11/23/8 9/24/8
f 14/22/3 16/17/3 12/20/3 11/23/3
f 17/25/1 19/26/1 10/27/1 9/28/1
f 7/6/3 8/5/3 16/17/3 14/22/3
f 3/29/9 7/6/9 14/22/9 15/21/9
f 8/5/7 4/30/7 13/18/7 16/17/7
f 9/28/1 10/27/1 13/2/1 15/1/1
f 21/31/1 23/32/1 19/26/1 17/25/1
f 12/20/10 10/19/10 19/33/10 18/34/10
f 9/24/11 11/23/11 20/35/11 17/36/11
f 11/23/3 12/20/3 18/34/3 20/35/3
f 25/37/1 27/38/1 23/32/1 21/31/1
f 18/34/12 19/33/12 23/39/12 22/40/12
f 17/36/13 20/35/13 24/41/13 21/42/13
f 20/35/3 18/34/3 22/40/3 24/41/3
f 1/43/1 2/44/1 27/38/1 25/37/1
f 22/40/14 23/39/14 27/16/14 26/8/14
f 21/42/5 24/41/5 28/7/5 25/14/5
f 24/41/3 22/40/3 26/8/3 28/7/3
f 34/45/15 32/46/15 38/47/15 40/48/15
f 5/10/3 6/9/3 32/13/3 31/49/3
f 2/44/1 1/43/1 29/50/1 30/51/1
f 1/15/16 5/10/16 31/49/16 29/52/16
f 31/49/3 32/13/3 38/53/3 37/54/3
f 40/48/15 38/47/15 44/55/15 46/56/15
f 37/54/3 38/53/3 44/57/3 43/58/3
f 33/59/17 34/45/17 40/48/17 39/60/17
f 29/52/17 31/49/17 37/54/17 35/61/17
f 30/51/1 29/50/1 35/62/1 36/63/1
f 30/64/15 33/59/15 39/60/15 36/65/15
f 46/56/15 44/55/15 50/66/15 52/67/15
f 43/58/18 44/57/18 50/68/18 49/69/18
f 39/60/19 40/48/19 46/56/19 45/70/19
f 35/61/20 37/54/20 43/58/20 41/71/20
f 36/63/1 35/62/1 41/72/1 42/73/1
f 36/65/15 39/60/15 45/70/15 42/74/15
f 48/75/15 51/76/15 57/77/15 54/78/15
f 48/79/1 47/80/1 53/81/1 54/82/1
f 45/70/21 46/56/21 52/67/21 51/76/21
f 41/71/22 43/58/22 49/69/22 47/83/22
f 42/73/23 41/72/23 47/80/23 48/79/23
f 42/74/15 45/70/15 51/76/15 48/75/15
f 66/84/15 67/85/15 63/86/15 60/87/15
f 66/88/1 65/89/1 59/90/1 60/91/1
f 49/69/3 50/68/3 56/92/3 55/93/3
f 52/67/15 50/66/15 56/94/15 58/95/15
f 51/76/24 52/67/24 58/95/24 57/77/24
f 47/83/25 49/69/25 55/93/25 53/96/25
f 63/86/26 64/97/26 76/98/26 75/99/26
f 64/97/15 62/100/15 74/101/15 76/98/15
f 69/102/3 68/103/3 62/104/3 61/105/3
f 70/106/15 68/107/15 62/100/15 64/97/15
f 67/85/27 70/106/27 64/97/27 63/86/27
f 65/108/28 69/102/28 61/105/28 59/109/28
f 53/96/29 55/93/29 69/102/29 65/108/29
f 57/77/30 58/95/30 70/106/30 67/85/30
f 58/95/15 56/94/15 68/107/15 70/106/15
f 55/93/3 56/92/3 68/103/3 69/102/3
f 54/82/1 53/81/1 65/89/1 66/88/1
f 54/78/15 57/77/15 67/85/15 66/84/15
f 85/110/31 84/111/31 82/112/31 81/113/31
f 84/114/15 83/115/15 80/116/15 82/117/15
f 59/109/32 61/105/32 73/118/32 71/119/32
f 60/91/1 59/90/1 71/120/1 72/121/1
f 60/87/15 63/86/15 75/99/15 72/122/15
f 61/105/3 62/104/3 74/123/3 73/118/3
f 79/124/3 80/116/3 92/125/3 91/126/3
f 78/127/15 81/113/15 93/128/15 90/129/15
f 87/130/33 86/131/33 79/124/33 77/132/33
f 88/133/1 87/134/1 77/135/1 78/136/1
f 88/137/15 85/110/15 81/113/15 78/127/15
f 86/131/3 83/115/3 80/116/3 79/124/3
f 73/118/3 74/123/3 83/115/3 86/131/3
f 72/122/15 75/99/15 85/110/15 88/137/15
f 72/121/1 71/120/1 87/134/1 88/133/1
f 71/119/31 73/118/31 86/131/31 87/130/31
f 76/138/15 74/123/15 83/115/15 84/114/15
f 75/99/34 76/98/34 84/111/34 85/110/34
f 91/126/3 92/125/3 98/139/3 97/140/3
f 90/129/15 93/128/15 99/141/15 96/142/15
f 82/117/15 80/116/15 92/125/15 94/143/15
f 81/113/35 82/112/35 94/144/35 93/128/35
f 77/132/35 79/124/35 91/126/35 89/145/35
f 78/136/1 77/135/1 89/146/1 90/147/1
f 95/148/36 97/140/36 103/149/36 101/150/36
f 99/141/37 100/151/37 106/152/37 105/153/37
f 94/143/15 92/125/15 98/139/15 100/154/15
f 93/128/38 94/144/38 100/151/38 99/141/38
f 89/145/39 91/126/39 97/140/39 95/148/39
f 90/147/1 89/146/1 95/155/1 96/156/1
f 106/157/15 104/158/15 110/159/15 112/160/15
f 103/149/3 104/158/3 110/159/3 109/161/3
f 96/156/1 95/155/1 101/162/1 102/163/1
f 96/142/15 99/141/15 105/153/15 102/164/15
f 97/140/3 98/139/3 104/158/3 103/149/3
f 100/154/15 98/139/15 104/158/15 106/157/15
f 121/165/1 120/166/1 113/167/1 114/168/1
f 120/169/40 119/170/40 115/171/40 113/172/40
f 105/153/41 106/152/41 112/173/41 111/174/41
f 101/150/42 103/149/42 109/161/42 107/175/42
f 102/163/1 101/162/1 107/176/1 108/177/1
f 102/164/15 105/153/15 111/174/15 108/178/15
f 115/171/43 116/179/43 114/180/43 113/181/43
f 116/179/15 114/180/15 117/182/15 118/183/15
f 121/184/15 122/185/15 117/186/15 114/187/15
f 119/170/3 123/188/3 116/179/3 115/171/3
f 124/189/15 123/188/15 116/179/15 118/183/15
f 122/185/44 124/190/44 118/191/44 117/186/44
f 111/174/45 112/173/45 124/190/45 122/185/45
f 112/160/15 110/159/15 123/188/15 124/189/15
f 109/161/3 110/159/3 123/188/3 119/170/3
f 108/178/15 111/174/15 122/185/15 121/184/15
f 107/175/40 109/161/40 119/170/40 120/169/40
f 108/177/1 107/176/1 120/166/1 121/165/1
